<?xml version="1.0" encoding="UTF-8"?>
<svg width="848px" height="335px" viewBox="0 0 848 335" version="1.1" xmlns="http://www.w3.org/2000/svg" xmlns:xlink="http://www.w3.org/1999/xlink">
    <title>home-marketplace-hex</title>
    <defs>
        <linearGradient x1="49.307%" y1="100%" x2="49.307%" y2="0.135%" id="linearGradient-1">
            <stop stop-color="#FEFEFF" offset="0%"></stop>
            <stop stop-color="#9AD5FF" offset="99.963%"></stop>
            <stop stop-color="#99D4FF" offset="100%"></stop>
        </linearGradient>
    </defs>
    <g id="Page-1" stroke="none" stroke-width="1" fill="none" fill-rule="evenodd">
        <g id="Rapid-API-Platform-Page" transform="translate(16.000000, -843.000000)" stroke="#4A90E2" stroke-width="0.85">
            <g id="group-2" transform="translate(-15.000000, 434.000000)">
                <g id="home-marketplace-hex" transform="translate(0.000000, 410.000000)">
                    <g id="Group" transform="translate(0.000000, 59.000080)">
                        <polygon id="Path" opacity="0.403" transform="translate(670.250300, 80.241542) rotate(30.000000) translate(-670.250300, -80.241542) " points="670.2503 19.2415416 723.0783 49.7415416 723.0783 110.741542 670.2503 141.241542 617.4223 110.741542 617.4223 49.7415416"></polygon>
                        <polygon id="Path" fill="#FFFFFF" fill-rule="nonzero" opacity="0.203" transform="translate(175.250375, 137.241562) rotate(30.000000) translate(-175.250375, -137.241562) " points="175.250375 76.2415617 228.078375 106.741562 228.078375 167.741562 175.250375 198.241562 122.422375 167.741562 122.422375 106.741562"></polygon>
                        <polygon id="Path" fill="#FFFFFF" fill-rule="nonzero" opacity="0.6" transform="translate(571.250315, 137.241546) rotate(30.000000) translate(-571.250315, -137.241546) " points="571.250315 76.2415456 624.078315 106.741546 624.078315 167.741546 571.250315 198.241546 518.422315 167.741546 518.422315 106.741546"></polygon>
                        <polygon id="Path" fill="#FFFFFF" fill-rule="nonzero" opacity="0.203" transform="translate(373.250345, 137.241554) rotate(30.000000) translate(-373.250345, -137.241554) " points="373.250345 76.2415536 426.078345 106.741554 426.078345 167.741554 373.250345 198.241554 320.422345 167.741554 320.422345 106.741554"></polygon>
                        <polygon id="Path" fill="#FFFFFF" fill-rule="nonzero" opacity="0.603" transform="translate(670.250300, 194.241542) rotate(30.000000) translate(-670.250300, -194.241542) " points="670.2503 133.241542 723.0783 163.741542 723.0783 224.741542 670.2503 255.241542 617.4223 224.741542 617.4223 163.741542"></polygon>
                        <polygon id="Path" opacity="0.203" transform="translate(472.250330, 79.241550) rotate(30.000000) translate(-472.250330, -79.241550) " points="472.25033 18.2415496 525.07833 48.7415496 525.07833 109.74155 472.25033 140.24155 419.42233 109.74155 419.42233 48.7415496"></polygon>
                        <polygon id="Path" opacity="0.6" transform="translate(274.250360, 79.241558) rotate(30.000000) translate(-274.250360, -79.241558) " points="274.25036 18.2415577 327.07836 48.7415577 327.07836 109.741558 274.25036 140.241558 221.42236 109.741558 221.42236 48.7415577"></polygon>
                        <polygon id="Path" opacity="0.203" transform="translate(76.250390, 79.241566) rotate(30.000000) translate(-76.250390, -79.241566) " points="76.25039 18.2415657 129.07839 48.7415657 129.07839 109.741566 76.25039 140.241566 23.42239 109.741566 23.42239 48.7415657"></polygon>
                    </g>
                    <g id="Group" transform="translate(98.999642, 0.000000)">
                        <polygon id="Path" fill="url(#linearGradient-1)" fill-rule="nonzero" opacity="0.503" transform="translate(670.250300, 196.241526) rotate(-150.000000) translate(-670.250300, -196.241526) " points="670.2503 135.241526 723.0783 165.741526 723.0783 226.741526 670.2503 257.241526 617.4223 226.741526 617.4223 165.741526"></polygon>
                        <polygon id="Path" opacity="0.603" transform="translate(76.250390, 79.241550) rotate(-150.000000) translate(-76.250390, -79.241550) " points="76.25039 18.2415496 129.07839 48.7415496 129.07839 109.74155 76.25039 140.24155 23.42239 109.74155 23.42239 48.7415496"></polygon>
                    </g>
                </g>
            </g>
        </g>
    </g>
</svg>